<svg width="1024" height="753" viewBox="0 0 1024 753" fill="none" xmlns="http://www.w3.org/2000/svg">
<g clip-path="url(#clip0_122_130)">
<rect width="1024" height="753" fill="#121214"/>
<g opacity="0.2" filter="url(#filter0_f_122_130)">
<ellipse cx="519.5" cy="28" rx="670.5" ry="350" fill="#338AF3"/>
</g>
<path d="M40.0349 264C41.5302 264 42.6622 264.63 43.4308 265.891C44.2134 267.138 44.6047 268.953 44.6047 271.336C44.6047 273.719 44.2134 275.541 43.4308 276.802C42.6622 278.063 41.5302 278.693 40.0349 278.693C38.5536 278.693 37.4216 278.063 36.639 276.802C35.8564 275.541 35.4651 273.719 35.4651 271.336C35.4651 268.967 35.8564 267.152 36.639 265.891C37.4216 264.63 38.5536 264 40.0349 264ZM36.9534 271.336C36.9534 273.026 37.1072 274.35 37.4146 275.306L42.0683 266.099C41.5791 265.448 40.9013 265.122 40.0349 265.122C39.0706 265.122 38.316 265.635 37.771 266.66C37.2259 267.672 36.9534 269.23 36.9534 271.336ZM40.0349 277.55C41.0131 277.55 41.7748 277.044 42.3198 276.033C42.8648 275.008 43.1373 273.442 43.1373 271.336C43.1373 269.549 42.9627 268.163 42.6133 267.18L37.9596 276.469C38.4627 277.19 39.1545 277.55 40.0349 277.55Z" fill="url(#paint0_linear_122_130)" fill-opacity="0.6"/>
<path d="M41.2926 301.135H44.3741V302.236H36.3874V301.135H39.9511V289.455L36.5551 291.471L35.9682 290.536L40.1607 287.959H41.2926V301.135Z" fill="url(#paint1_linear_122_130)" fill-opacity="0.6"/>
<path d="M40.0349 311.502C41.5302 311.502 42.6622 312.133 43.4308 313.393C44.2134 314.64 44.6047 316.455 44.6047 318.838C44.6047 321.221 44.2134 323.043 43.4308 324.304C42.6622 325.565 41.5302 326.195 40.0349 326.195C38.5536 326.195 37.4216 325.565 36.639 324.304C35.8564 323.043 35.4651 321.221 35.4651 318.838C35.4651 316.469 35.8564 314.654 36.639 313.393C37.4216 312.133 38.5536 311.502 40.0349 311.502ZM36.9534 318.838C36.9534 320.529 37.1072 321.852 37.4146 322.808L42.0683 313.601C41.5791 312.95 40.9013 312.624 40.0349 312.624C39.0706 312.624 38.316 313.137 37.771 314.162C37.2259 315.174 36.9534 316.732 36.9534 318.838ZM40.0349 325.052C41.0131 325.052 41.7748 324.546 42.3198 323.535C42.8648 322.51 43.1373 320.944 43.1373 318.838C43.1373 317.051 42.9627 315.665 42.6133 314.682L37.9596 323.971C38.4627 324.692 39.1545 325.052 40.0349 325.052Z" fill="url(#paint2_linear_122_130)" fill-opacity="0.6"/>
<path d="M41.2926 348.637H44.3741V349.738H36.3874V348.637H39.9511V336.957L36.5551 338.973L35.9682 338.038L40.1607 335.461H41.2926V348.637Z" fill="url(#paint3_linear_122_130)" fill-opacity="0.6"/>
<path d="M41.2926 372.388H44.3741V373.489H36.3874V372.388H39.9511V360.708L36.5551 362.724L35.9682 361.789L40.1607 359.212H41.2926V372.388Z" fill="url(#paint4_linear_122_130)" fill-opacity="0.6"/>
<path d="M40.0349 382.755C41.5302 382.755 42.6622 383.386 43.4308 384.646C44.2134 385.893 44.6047 387.708 44.6047 390.091C44.6047 392.474 44.2134 394.296 43.4308 395.557C42.6622 396.818 41.5302 397.448 40.0349 397.448C38.5536 397.448 37.4216 396.818 36.639 395.557C35.8564 394.296 35.4651 392.474 35.4651 390.091C35.4651 387.722 35.8564 385.907 36.639 384.646C37.4216 383.386 38.5536 382.755 40.0349 382.755ZM36.9534 390.091C36.9534 391.782 37.1072 393.105 37.4146 394.061L42.0683 384.854C41.5791 384.203 40.9013 383.878 40.0349 383.878C39.0706 383.878 38.316 384.39 37.771 385.415C37.2259 386.427 36.9534 387.985 36.9534 390.091ZM40.0349 396.305C41.0131 396.305 41.7748 395.8 42.3198 394.788C42.8648 393.763 43.1373 392.197 43.1373 390.091C43.1373 388.304 42.9627 386.919 42.6133 385.935L37.9596 395.225C38.4627 395.945 39.1545 396.305 40.0349 396.305Z" fill="url(#paint5_linear_122_130)" fill-opacity="0.6"/>
<path d="M41.2926 419.89H44.3741V420.992H36.3874V419.89H39.9511V408.21L36.5551 410.226L35.9682 409.291L40.1607 406.714H41.2926V419.89Z" fill="url(#paint6_linear_122_130)" fill-opacity="0.6"/>
<path d="M40.0349 430.257C41.5302 430.257 42.6622 430.888 43.4308 432.149C44.2134 433.396 44.6047 435.211 44.6047 437.594C44.6047 439.977 44.2134 441.798 43.4308 443.059C42.6622 444.32 41.5302 444.95 40.0349 444.95C38.5536 444.95 37.4216 444.32 36.639 443.059C35.8564 441.798 35.4651 439.977 35.4651 437.594C35.4651 435.224 35.8564 433.409 36.639 432.149C37.4216 430.888 38.5536 430.257 40.0349 430.257ZM36.9534 437.594C36.9534 439.284 37.1072 440.607 37.4146 441.563L42.0683 432.356C41.5791 431.705 40.9013 431.38 40.0349 431.38C39.0706 431.38 38.316 431.892 37.771 432.918C37.2259 433.929 36.9534 435.488 36.9534 437.594ZM40.0349 443.807C41.0131 443.807 41.7748 443.302 42.3198 442.29C42.8648 441.265 43.1373 439.699 43.1373 437.594C43.1373 435.806 42.9627 434.421 42.6133 433.437L37.9596 442.727C38.4627 443.447 39.1545 443.807 40.0349 443.807Z" fill="url(#paint7_linear_122_130)" fill-opacity="0.6"/>
<path d="M40.0349 454.008C41.5302 454.008 42.6622 454.639 43.4308 455.9C44.2134 457.147 44.6047 458.962 44.6047 461.345C44.6047 463.728 44.2134 465.549 43.4308 466.81C42.6622 468.071 41.5302 468.701 40.0349 468.701C38.5536 468.701 37.4216 468.071 36.639 466.81C35.8564 465.549 35.4651 463.728 35.4651 461.345C35.4651 458.975 35.8564 457.16 36.639 455.9C37.4216 454.639 38.5536 454.008 40.0349 454.008ZM36.9534 461.345C36.9534 463.035 37.1072 464.358 37.4146 465.314L42.0683 456.107C41.5791 455.456 40.9013 455.131 40.0349 455.131C39.0706 455.131 38.316 455.643 37.771 456.669C37.2259 457.68 36.9534 459.239 36.9534 461.345ZM40.0349 467.558C41.0131 467.558 41.7748 467.053 42.3198 466.041C42.8648 465.016 43.1373 463.451 43.1373 461.345C43.1373 459.557 42.9627 458.172 42.6133 457.188L37.9596 466.478C38.4627 467.198 39.1545 467.558 40.0349 467.558Z" fill="url(#paint8_linear_122_130)" fill-opacity="0.6"/>
<path d="M41.2926 491.143H44.3741V492.245H36.3874V491.143H39.9511V479.464L36.5551 481.48L35.9682 480.544L40.1607 477.967H41.2926V491.143Z" fill="url(#paint9_linear_122_130)" fill-opacity="0.6"/>
<path d="M40.0349 501.511C41.5302 501.511 42.6622 502.141 43.4308 503.402C44.2134 504.649 44.6047 506.464 44.6047 508.847C44.6047 511.23 44.2134 513.052 43.4308 514.312C42.6622 515.573 41.5302 516.204 40.0349 516.204C38.5536 516.204 37.4216 515.573 36.639 514.312C35.8564 513.052 35.4651 511.23 35.4651 508.847C35.4651 506.478 35.8564 504.663 36.639 503.402C37.4216 502.141 38.5536 501.511 40.0349 501.511ZM36.9534 508.847C36.9534 510.537 37.1072 511.86 37.4146 512.816L42.0683 503.61C41.5791 502.958 40.9013 502.633 40.0349 502.633C39.0706 502.633 38.316 503.145 37.771 504.171C37.2259 505.182 36.9534 506.741 36.9534 508.847ZM40.0349 515.061C41.0131 515.061 41.7748 514.555 42.3198 513.543C42.8648 512.518 43.1373 510.953 43.1373 508.847C43.1373 507.059 42.9627 505.674 42.6133 504.69L37.9596 513.98C38.4627 514.7 39.1545 515.061 40.0349 515.061Z" fill="url(#paint10_linear_122_130)" fill-opacity="0.6"/>
<path d="M41.2926 538.645H44.3741V539.747H36.3874V538.645H39.9511V526.966L36.5551 528.982L35.9682 528.046L40.1607 525.469H41.2926V538.645Z" fill="url(#paint11_linear_122_130)" fill-opacity="0.6"/>
<path d="M41.2926 562.396H44.3741V563.498H36.3874V562.396H39.9511V550.717L36.5551 552.733L35.9682 551.798L40.1607 549.221H41.2926V562.396Z" fill="url(#paint12_linear_122_130)" fill-opacity="0.6"/>
<path d="M78.9651 311.502C80.4604 311.502 81.5924 312.133 82.361 313.393C83.1436 314.64 83.5349 316.455 83.5349 318.838C83.5349 321.221 83.1436 323.043 82.361 324.304C81.5924 325.565 80.4604 326.195 78.9651 326.195C77.4838 326.195 76.3518 325.565 75.5692 324.304C74.7866 323.043 74.3953 321.221 74.3953 318.838C74.3953 316.469 74.7866 314.654 75.5692 313.393C76.3518 312.133 77.4838 311.502 78.9651 311.502ZM75.8836 318.838C75.8836 320.529 76.0374 321.852 76.3448 322.808L80.9985 313.601C80.5093 312.95 79.8315 312.624 78.9651 312.624C78.0008 312.624 77.2462 313.137 76.7012 314.162C76.1561 315.174 75.8836 316.732 75.8836 318.838ZM78.9651 325.052C79.9433 325.052 80.705 324.546 81.25 323.535C81.795 322.51 82.0675 320.944 82.0675 318.838C82.0675 317.051 81.8928 315.665 81.5435 314.682L76.8898 323.971C77.3929 324.692 78.0847 325.052 78.9651 325.052Z" fill="url(#paint13_linear_122_130)" fill-opacity="0.6"/>
<path d="M80.2228 348.637H83.3043V349.738H75.3176V348.637H78.8812V336.957L75.4853 338.973L74.8984 338.038L79.0909 335.461H80.2228V348.637Z" fill="url(#paint14_linear_122_130)" fill-opacity="0.6"/>
<path d="M78.9651 359.004C80.4604 359.004 81.5924 359.635 82.361 360.895C83.1436 362.142 83.5349 363.957 83.5349 366.34C83.5349 368.723 83.1436 370.545 82.361 371.806C81.5924 373.067 80.4604 373.697 78.9651 373.697C77.4838 373.697 76.3518 373.067 75.5692 371.806C74.7866 370.545 74.3953 368.723 74.3953 366.34C74.3953 363.971 74.7866 362.156 75.5692 360.895C76.3518 359.635 77.4838 359.004 78.9651 359.004ZM75.8836 366.34C75.8836 368.031 76.0374 369.354 76.3448 370.31L80.9985 361.103C80.5093 360.452 79.8315 360.126 78.9651 360.126C78.0008 360.126 77.2462 360.639 76.7012 361.664C76.1561 362.676 75.8836 364.234 75.8836 366.34ZM78.9651 372.554C79.9433 372.554 80.705 372.049 81.25 371.037C81.795 370.012 82.0675 368.446 82.0675 366.34C82.0675 364.553 81.8928 363.168 81.5435 362.184L76.8898 371.474C77.3929 372.194 78.0847 372.554 78.9651 372.554Z" fill="url(#paint15_linear_122_130)" fill-opacity="0.6"/>
<path d="M78.9651 382.755C80.4604 382.755 81.5924 383.386 82.361 384.646C83.1436 385.893 83.5349 387.708 83.5349 390.091C83.5349 392.474 83.1436 394.296 82.361 395.557C81.5924 396.818 80.4604 397.448 78.9651 397.448C77.4838 397.448 76.3518 396.818 75.5692 395.557C74.7866 394.296 74.3953 392.474 74.3953 390.091C74.3953 387.722 74.7866 385.907 75.5692 384.646C76.3518 383.386 77.4838 382.755 78.9651 382.755ZM75.8836 390.091C75.8836 391.782 76.0374 393.105 76.3448 394.061L80.9985 384.854C80.5093 384.203 79.8315 383.878 78.9651 383.878C78.0008 383.878 77.2462 384.39 76.7012 385.415C76.1561 386.427 75.8836 387.985 75.8836 390.091ZM78.9651 396.305C79.9433 396.305 80.705 395.8 81.25 394.788C81.795 393.763 82.0675 392.197 82.0675 390.091C82.0675 388.304 81.8928 386.919 81.5435 385.935L76.8898 395.225C77.3929 395.945 78.0847 396.305 78.9651 396.305Z" fill="url(#paint16_linear_122_130)" fill-opacity="0.6"/>
<path d="M80.2228 419.89H83.3043V420.992H75.3176V419.89H78.8812V408.21L75.4853 410.226L74.8984 409.291L79.0909 406.714H80.2228V419.89Z" fill="url(#paint17_linear_122_130)" fill-opacity="0.6"/>
<path d="M78.9651 430.257C80.4604 430.257 81.5924 430.888 82.361 432.149C83.1436 433.396 83.5349 435.211 83.5349 437.594C83.5349 439.977 83.1436 441.798 82.361 443.059C81.5924 444.32 80.4604 444.95 78.9651 444.95C77.4838 444.95 76.3518 444.32 75.5692 443.059C74.7866 441.798 74.3953 439.977 74.3953 437.594C74.3953 435.224 74.7866 433.409 75.5692 432.149C76.3518 430.888 77.4838 430.257 78.9651 430.257ZM75.8836 437.594C75.8836 439.284 76.0374 440.607 76.3448 441.563L80.9985 432.356C80.5093 431.705 79.8315 431.38 78.9651 431.38C78.0008 431.38 77.2462 431.892 76.7012 432.918C76.1561 433.929 75.8836 435.488 75.8836 437.594ZM78.9651 443.807C79.9433 443.807 80.705 443.302 81.25 442.29C81.795 441.265 82.0675 439.699 82.0675 437.594C82.0675 435.806 81.8928 434.421 81.5435 433.437L76.8898 442.727C77.3929 443.447 78.0847 443.807 78.9651 443.807Z" fill="url(#paint18_linear_122_130)" fill-opacity="0.6"/>
<path d="M80.2228 467.392H83.3043V468.494H75.3176V467.392H78.8812V455.713L75.4853 457.728L74.8984 456.793L79.0909 454.216H80.2228V467.392Z" fill="url(#paint19_linear_122_130)" fill-opacity="0.6"/>
<path d="M78.9651 477.76C80.4604 477.76 81.5924 478.39 82.361 479.651C83.1436 480.898 83.5349 482.713 83.5349 485.096C83.5349 487.479 83.1436 489.301 82.361 490.561C81.5924 491.822 80.4604 492.453 78.9651 492.453C77.4838 492.453 76.3518 491.822 75.5692 490.561C74.7866 489.301 74.3953 487.479 74.3953 485.096C74.3953 482.726 74.7866 480.911 75.5692 479.651C76.3518 478.39 77.4838 477.76 78.9651 477.76ZM75.8836 485.096C75.8836 486.786 76.0374 488.109 76.3448 489.065L80.9985 479.859C80.5093 479.207 79.8315 478.882 78.9651 478.882C78.0008 478.882 77.2462 479.394 76.7012 480.42C76.1561 481.431 75.8836 482.99 75.8836 485.096ZM78.9651 491.31C79.9433 491.31 80.705 490.804 81.25 489.792C81.795 488.767 82.0675 487.202 82.0675 485.096C82.0675 483.308 81.8928 481.923 81.5435 480.939L76.8898 490.229C77.3929 490.949 78.0847 491.31 78.9651 491.31Z" fill="url(#paint20_linear_122_130)" fill-opacity="0.6"/>
<path d="M78.9651 501.511C80.4604 501.511 81.5924 502.141 82.361 503.402C83.1436 504.649 83.5349 506.464 83.5349 508.847C83.5349 511.23 83.1436 513.052 82.361 514.312C81.5924 515.573 80.4604 516.204 78.9651 516.204C77.4838 516.204 76.3518 515.573 75.5692 514.312C74.7866 513.052 74.3953 511.23 74.3953 508.847C74.3953 506.478 74.7866 504.663 75.5692 503.402C76.3518 502.141 77.4838 501.511 78.9651 501.511ZM75.8836 508.847C75.8836 510.537 76.0374 511.86 76.3448 512.816L80.9985 503.61C80.5093 502.958 79.8315 502.633 78.9651 502.633C78.0008 502.633 77.2462 503.145 76.7012 504.171C76.1561 505.182 75.8836 506.741 75.8836 508.847ZM78.9651 515.061C79.9433 515.061 80.705 514.555 81.25 513.543C81.795 512.518 82.0675 510.953 82.0675 508.847C82.0675 507.059 81.8928 505.674 81.5435 504.69L76.8898 513.98C77.3929 514.7 78.0847 515.061 78.9651 515.061Z" fill="url(#paint21_linear_122_130)" fill-opacity="0.6"/>
<path d="M80.2228 538.645H83.3043V539.747H75.3176V538.645H78.8812V526.966L75.4853 528.982L74.8984 528.046L79.0909 525.469H80.2228V538.645Z" fill="url(#paint22_linear_122_130)" fill-opacity="0.6"/>
<path d="M78.9651 549.013C80.4604 549.013 81.5924 549.643 82.361 550.904C83.1436 552.151 83.5349 553.966 83.5349 556.349C83.5349 558.732 83.1436 560.554 82.361 561.815C81.5924 563.075 80.4604 563.706 78.9651 563.706C77.4838 563.706 76.3518 563.075 75.5692 561.815C74.7866 560.554 74.3953 558.732 74.3953 556.349C74.3953 553.98 74.7866 552.165 75.5692 550.904C76.3518 549.643 77.4838 549.013 78.9651 549.013ZM75.8836 556.349C75.8836 558.039 76.0374 559.362 76.3448 560.318L80.9985 551.112C80.5093 550.461 79.8315 550.135 78.9651 550.135C78.0008 550.135 77.2462 550.648 76.7012 551.673C76.1561 552.684 75.8836 554.243 75.8836 556.349ZM78.9651 562.563C79.9433 562.563 80.705 562.057 81.25 561.046C81.795 560.02 82.0675 558.455 82.0675 556.349C82.0675 554.562 81.8928 553.176 81.5435 552.192L76.8898 561.482C77.3929 562.202 78.0847 562.563 78.9651 562.563Z" fill="url(#paint23_linear_122_130)" fill-opacity="0.6"/>
<path d="M80.2228 586.148H83.3043V587.249H75.3176V586.148H78.8812V574.468L75.4853 576.484L74.8984 575.549L79.0909 572.972H80.2228V586.148Z" fill="url(#paint24_linear_122_130)" fill-opacity="0.6"/>
<path d="M80.2228 609.899H83.3043V611H75.3176V609.899H78.8812V598.219L75.4853 600.235L74.8984 599.3L79.0909 596.723H80.2228V609.899Z" fill="url(#paint25_linear_122_130)" fill-opacity="0.6"/>
<path d="M20.5698 335.253C22.0651 335.253 23.1971 335.884 23.9657 337.144C24.7483 338.391 25.1396 340.206 25.1396 342.589C25.1396 344.972 24.7483 346.794 23.9657 348.055C23.1971 349.316 22.0651 349.946 20.5698 349.946C19.0885 349.946 17.9565 349.316 17.1739 348.055C16.3913 346.794 16 344.972 16 342.589C16 340.22 16.3913 338.405 17.1739 337.144C17.9565 335.884 19.0885 335.253 20.5698 335.253ZM17.4883 342.589C17.4883 344.28 17.6421 345.603 17.9495 346.559L22.6032 337.352C22.114 336.701 21.4363 336.375 20.5698 336.375C19.6055 336.375 18.8509 336.888 18.3059 337.913C17.7608 338.925 17.4883 340.483 17.4883 342.589ZM20.5698 348.803C21.5481 348.803 22.3097 348.297 22.8547 347.286C23.3997 346.261 23.6722 344.695 23.6722 342.589C23.6722 340.802 23.4976 339.417 23.1482 338.433L18.4945 347.722C18.9976 348.443 19.6894 348.803 20.5698 348.803Z" fill="url(#paint26_linear_122_130)" fill-opacity="0.6"/>
<path d="M20.5698 359.004C22.0651 359.004 23.1971 359.635 23.9657 360.895C24.7483 362.142 25.1396 363.957 25.1396 366.34C25.1396 368.723 24.7483 370.545 23.9657 371.806C23.1971 373.067 22.0651 373.697 20.5698 373.697C19.0885 373.697 17.9565 373.067 17.1739 371.806C16.3913 370.545 16 368.723 16 366.34C16 363.971 16.3913 362.156 17.1739 360.895C17.9565 359.635 19.0885 359.004 20.5698 359.004ZM17.4883 366.34C17.4883 368.031 17.6421 369.354 17.9495 370.31L22.6032 361.103C22.114 360.452 21.4363 360.126 20.5698 360.126C19.6055 360.126 18.8509 360.639 18.3059 361.664C17.7608 362.676 17.4883 364.234 17.4883 366.34ZM20.5698 372.554C21.5481 372.554 22.3097 372.049 22.8547 371.037C23.3997 370.012 23.6722 368.446 23.6722 366.34C23.6722 364.553 23.4976 363.168 23.1482 362.184L18.4945 371.474C18.9976 372.194 19.6894 372.554 20.5698 372.554Z" fill="url(#paint27_linear_122_130)" fill-opacity="0.6"/>
<path d="M21.8276 396.139H24.909V397.24H16.9223V396.139H20.486V384.459L17.09 386.475L16.5031 385.54L20.6956 382.963H21.8276V396.139Z" fill="url(#paint28_linear_122_130)" fill-opacity="0.6"/>
<path d="M20.5698 406.506C22.0651 406.506 23.1971 407.137 23.9657 408.398C24.7483 409.644 25.1396 411.459 25.1396 413.842C25.1396 416.225 24.7483 418.047 23.9657 419.308C23.1971 420.569 22.0651 421.199 20.5698 421.199C19.0885 421.199 17.9565 420.569 17.1739 419.308C16.3913 418.047 16 416.225 16 413.842C16 411.473 16.3913 409.658 17.1739 408.398C17.9565 407.137 19.0885 406.506 20.5698 406.506ZM17.4883 413.842C17.4883 415.533 17.6421 416.856 17.9495 417.812L22.6032 408.605C22.114 407.954 21.4363 407.629 20.5698 407.629C19.6055 407.629 18.8509 408.141 18.3059 409.166C17.7608 410.178 17.4883 411.737 17.4883 413.842ZM20.5698 420.056C21.5481 420.056 22.3097 419.551 22.8547 418.539C23.3997 417.514 23.6722 415.948 23.6722 413.842C23.6722 412.055 23.4976 410.67 23.1482 409.686L18.4945 418.976C18.9976 419.696 19.6894 420.056 20.5698 420.056Z" fill="url(#paint29_linear_122_130)" fill-opacity="0.6"/>
<path d="M21.8276 443.641H24.909V444.743H16.9223V443.641H20.486V431.962L17.09 433.977L16.5031 433.042L20.6956 430.465H21.8276V443.641Z" fill="url(#paint30_linear_122_130)" fill-opacity="0.6"/>
<path d="M21.8276 467.392H24.909V468.494H16.9223V467.392H20.486V455.713L17.09 457.728L16.5031 456.793L20.6956 454.216H21.8276V467.392Z" fill="url(#paint31_linear_122_130)" fill-opacity="0.6"/>
<path d="M60.7577 301.135H63.8392V302.236H55.8525V301.135H59.4162V289.455L56.0202 291.471L55.4333 290.536L59.6258 287.959H60.7577V301.135Z" fill="url(#paint32_linear_122_130)" fill-opacity="0.6"/>
<path d="M59.5 311.502C60.9953 311.502 62.1273 312.133 62.8959 313.393C63.6785 314.64 64.0698 316.455 64.0698 318.838C64.0698 321.221 63.6785 323.043 62.8959 324.304C62.1273 325.565 60.9953 326.195 59.5 326.195C58.0187 326.195 56.8867 325.565 56.1041 324.304C55.3215 323.043 54.9302 321.221 54.9302 318.838C54.9302 316.469 55.3215 314.654 56.1041 313.393C56.8867 312.133 58.0187 311.502 59.5 311.502ZM56.4185 318.838C56.4185 320.529 56.5723 321.852 56.8797 322.808L61.5334 313.601C61.0442 312.95 60.3664 312.624 59.5 312.624C58.5357 312.624 57.7811 313.137 57.2361 314.162C56.691 315.174 56.4185 316.732 56.4185 318.838ZM59.5 325.052C60.4782 325.052 61.2399 324.546 61.7849 323.535C62.3299 322.51 62.6024 320.944 62.6024 318.838C62.6024 317.051 62.4277 315.665 62.0784 314.682L57.4247 323.971C57.9278 324.692 58.6196 325.052 59.5 325.052Z" fill="url(#paint33_linear_122_130)" fill-opacity="0.6"/>
<path d="M60.7577 348.637H63.8392V349.738H55.8525V348.637H59.4162V336.957L56.0202 338.973L55.4333 338.038L59.6258 335.461H60.7577V348.637Z" fill="url(#paint34_linear_122_130)" fill-opacity="0.6"/>
<path d="M60.7577 372.388H63.8392V373.489H55.8525V372.388H59.4162V360.708L56.0202 362.724L55.4333 361.789L59.6258 359.212H60.7577V372.388Z" fill="url(#paint35_linear_122_130)" fill-opacity="0.6"/>
<path d="M59.5 382.755C60.9953 382.755 62.1273 383.386 62.8959 384.646C63.6785 385.893 64.0698 387.708 64.0698 390.091C64.0698 392.474 63.6785 394.296 62.8959 395.557C62.1273 396.818 60.9953 397.448 59.5 397.448C58.0187 397.448 56.8867 396.818 56.1041 395.557C55.3215 394.296 54.9302 392.474 54.9302 390.091C54.9302 387.722 55.3215 385.907 56.1041 384.646C56.8867 383.386 58.0187 382.755 59.5 382.755ZM56.4185 390.091C56.4185 391.782 56.5723 393.105 56.8797 394.061L61.5334 384.854C61.0442 384.203 60.3664 383.878 59.5 383.878C58.5357 383.878 57.7811 384.39 57.2361 385.415C56.691 386.427 56.4185 387.985 56.4185 390.091ZM59.5 396.305C60.4782 396.305 61.2399 395.8 61.7849 394.788C62.3299 393.763 62.6024 392.197 62.6024 390.091C62.6024 388.304 62.4277 386.919 62.0784 385.935L57.4247 395.225C57.9278 395.945 58.6196 396.305 59.5 396.305Z" fill="url(#paint36_linear_122_130)" fill-opacity="0.6"/>
<path d="M60.7577 419.89H63.8392V420.992H55.8525V419.89H59.4162V408.21L56.0202 410.226L55.4333 409.291L59.6258 406.714H60.7577V419.89Z" fill="url(#paint37_linear_122_130)" fill-opacity="0.6"/>
<path d="M60.7577 443.641H63.8392V444.743H55.8525V443.641H59.4162V431.962L56.0202 433.977L55.4333 433.042L59.6258 430.465H60.7577V443.641Z" fill="url(#paint38_linear_122_130)" fill-opacity="0.6"/>
<path d="M59.5 454.008C60.9953 454.008 62.1273 454.639 62.8959 455.9C63.6785 457.147 64.0698 458.962 64.0698 461.345C64.0698 463.728 63.6785 465.549 62.8959 466.81C62.1273 468.071 60.9953 468.701 59.5 468.701C58.0187 468.701 56.8867 468.071 56.1041 466.81C55.3215 465.549 54.9302 463.728 54.9302 461.345C54.9302 458.975 55.3215 457.16 56.1041 455.9C56.8867 454.639 58.0187 454.008 59.5 454.008ZM56.4185 461.345C56.4185 463.035 56.5723 464.358 56.8797 465.314L61.5334 456.107C61.0442 455.456 60.3664 455.131 59.5 455.131C58.5357 455.131 57.7811 455.643 57.2361 456.669C56.691 457.68 56.4185 459.239 56.4185 461.345ZM59.5 467.558C60.4782 467.558 61.2399 467.053 61.7849 466.041C62.3299 465.016 62.6024 463.451 62.6024 461.345C62.6024 459.557 62.4277 458.172 62.0784 457.188L57.4247 466.478C57.9278 467.198 58.6196 467.558 59.5 467.558Z" fill="url(#paint39_linear_122_130)" fill-opacity="0.6"/>
<path d="M60.7577 491.143H63.8392V492.245H55.8525V491.143H59.4162V479.464L56.0202 481.48L55.4333 480.544L59.6258 477.967H60.7577V491.143Z" fill="url(#paint40_linear_122_130)" fill-opacity="0.6"/>
<path d="M59.5 501.511C60.9953 501.511 62.1273 502.141 62.8959 503.402C63.6785 504.649 64.0698 506.464 64.0698 508.847C64.0698 511.23 63.6785 513.052 62.8959 514.312C62.1273 515.573 60.9953 516.204 59.5 516.204C58.0187 516.204 56.8867 515.573 56.1041 514.312C55.3215 513.052 54.9302 511.23 54.9302 508.847C54.9302 506.478 55.3215 504.663 56.1041 503.402C56.8867 502.141 58.0187 501.511 59.5 501.511ZM56.4185 508.847C56.4185 510.537 56.5723 511.86 56.8797 512.816L61.5334 503.61C61.0442 502.958 60.3664 502.633 59.5 502.633C58.5357 502.633 57.7811 503.145 57.2361 504.171C56.691 505.182 56.4185 506.741 56.4185 508.847ZM59.5 515.061C60.4782 515.061 61.2399 514.555 61.7849 513.543C62.3299 512.518 62.6024 510.953 62.6024 508.847C62.6024 507.059 62.4277 505.674 62.0784 504.69L57.4247 513.98C57.9278 514.7 58.6196 515.061 59.5 515.061Z" fill="url(#paint41_linear_122_130)" fill-opacity="0.6"/>
<path d="M98.4302 287.751C99.9255 287.751 101.057 288.381 101.826 289.642C102.609 290.889 103 292.704 103 295.087C103 297.47 102.609 299.292 101.826 300.553C101.057 301.814 99.9255 302.444 98.4302 302.444C96.9489 302.444 95.8169 301.814 95.0343 300.553C94.2517 299.292 93.8604 297.47 93.8604 295.087C93.8604 292.718 94.2517 290.903 95.0343 289.642C95.8169 288.381 96.9489 287.751 98.4302 287.751ZM95.3487 295.087C95.3487 296.777 95.5024 298.101 95.8099 299.057L100.464 289.85C99.9744 289.199 99.2966 288.873 98.4302 288.873C97.4659 288.873 96.7113 289.386 96.1663 290.411C95.6212 291.423 95.3487 292.981 95.3487 295.087ZM98.4302 301.301C99.4084 301.301 100.17 300.795 100.715 299.784C101.26 298.759 101.533 297.193 101.533 295.087C101.533 293.3 101.358 291.914 101.009 290.931L96.3549 300.22C96.858 300.941 97.5498 301.301 98.4302 301.301Z" fill="url(#paint42_linear_122_130)" fill-opacity="0.6"/>
<path d="M99.6879 324.886H102.769V325.987H94.7827V324.886H98.3463V313.206L94.9504 315.222L94.3635 314.287L98.556 311.71H99.6879V324.886Z" fill="url(#paint43_linear_122_130)" fill-opacity="0.6"/>
<path d="M99.6879 348.637H102.769V349.738H94.7827V348.637H98.3463V336.957L94.9504 338.973L94.3635 338.038L98.556 335.461H99.6879V348.637Z" fill="url(#paint44_linear_122_130)" fill-opacity="0.6"/>
<path d="M98.4302 359.004C99.9255 359.004 101.057 359.635 101.826 360.895C102.609 362.142 103 363.957 103 366.34C103 368.723 102.609 370.545 101.826 371.806C101.057 373.067 99.9255 373.697 98.4302 373.697C96.9489 373.697 95.8169 373.067 95.0343 371.806C94.2517 370.545 93.8604 368.723 93.8604 366.34C93.8604 363.971 94.2517 362.156 95.0343 360.895C95.8169 359.635 96.9489 359.004 98.4302 359.004ZM95.3487 366.34C95.3487 368.031 95.5024 369.354 95.8099 370.31L100.464 361.103C99.9744 360.452 99.2966 360.126 98.4302 360.126C97.4659 360.126 96.7113 360.639 96.1663 361.664C95.6212 362.676 95.3487 364.234 95.3487 366.34ZM98.4302 372.554C99.4084 372.554 100.17 372.049 100.715 371.037C101.26 370.012 101.533 368.446 101.533 366.34C101.533 364.553 101.358 363.168 101.009 362.184L96.3549 371.474C96.858 372.194 97.5498 372.554 98.4302 372.554Z" fill="url(#paint45_linear_122_130)" fill-opacity="0.6"/>
<path d="M98.4302 382.755C99.9255 382.755 101.057 383.386 101.826 384.646C102.609 385.893 103 387.708 103 390.091C103 392.474 102.609 394.296 101.826 395.557C101.057 396.818 99.9255 397.448 98.4302 397.448C96.9489 397.448 95.8169 396.818 95.0343 395.557C94.2517 394.296 93.8604 392.474 93.8604 390.091C93.8604 387.722 94.2517 385.907 95.0343 384.646C95.8169 383.386 96.9489 382.755 98.4302 382.755ZM95.3487 390.091C95.3487 391.782 95.5024 393.105 95.8099 394.061L100.464 384.854C99.9744 384.203 99.2966 383.878 98.4302 383.878C97.4659 383.878 96.7113 384.39 96.1663 385.415C95.6212 386.427 95.3487 387.985 95.3487 390.091ZM98.4302 396.305C99.4084 396.305 100.17 395.8 100.715 394.788C101.26 393.763 101.533 392.197 101.533 390.091C101.533 388.304 101.358 386.919 101.009 385.935L96.3549 395.225C96.858 395.945 97.5498 396.305 98.4302 396.305Z" fill="url(#paint46_linear_122_130)" fill-opacity="0.6"/>
<g opacity="0.6">
<path d="M926.93 -36C928.356 -36 929.436 -35.395 930.17 -34.1851C930.916 -32.9885 931.29 -31.2468 931.29 -28.9599C931.29 -26.673 930.916 -24.9246 930.17 -23.7147C929.436 -22.5048 928.356 -21.8998 926.93 -21.8998C925.517 -21.8998 924.437 -22.5048 923.69 -23.7147C922.943 -24.9246 922.57 -26.673 922.57 -28.9599C922.57 -31.2335 922.943 -32.9752 923.69 -34.1851C924.437 -35.395 925.517 -36 926.93 -36ZM923.99 -28.9599C923.99 -27.3378 924.137 -26.068 924.43 -25.1506L928.87 -33.9857C928.403 -34.6106 927.756 -34.923 926.93 -34.923C926.01 -34.923 925.29 -34.4311 924.77 -33.4472C924.25 -32.4766 923.99 -30.9808 923.99 -28.9599ZM926.93 -22.9967C927.863 -22.9967 928.59 -23.482 929.11 -24.4526C929.63 -25.4365 929.89 -26.9389 929.89 -28.9599C929.89 -30.675 929.723 -32.0046 929.39 -32.9486L924.95 -24.0338C925.43 -23.3424 926.09 -22.9967 926.93 -22.9967Z" fill="url(#paint47_linear_122_130)"/>
<path d="M928.13 -0.363452H931.07V0.693562H923.45V-0.363452H926.85V-11.5718L923.61 -9.63727L923.05 -10.5347L927.05 -13.0078H928.13V-0.363452Z" fill="url(#paint48_linear_122_130)"/>
<path d="M926.93 9.58561C928.356 9.58561 929.436 10.1906 930.17 11.4005C930.916 12.5971 931.29 14.3389 931.29 16.6257C931.29 18.9126 930.916 20.661 930.17 21.8709C929.436 23.0808 928.356 23.6858 926.93 23.6858C925.517 23.6858 924.437 23.0808 923.69 21.8709C922.943 20.661 922.57 18.9126 922.57 16.6257C922.57 14.3522 922.943 12.6104 923.69 11.4005C924.437 10.1906 925.517 9.58561 926.93 9.58561ZM923.99 16.6257C923.99 18.2478 924.137 19.5176 924.43 20.435L928.87 11.5999C928.403 10.975 927.756 10.6626 926.93 10.6626C926.01 10.6626 925.29 11.1545 924.77 12.1384C924.25 13.109 923.99 14.6048 923.99 16.6257ZM926.93 22.5889C927.863 22.5889 928.59 22.1036 929.11 21.133C929.63 20.1491 929.89 18.6467 929.89 16.6257C929.89 14.9106 929.723 13.581 929.39 12.637L924.95 21.5518C925.43 22.2432 926.09 22.5889 926.93 22.5889Z" fill="url(#paint49_linear_122_130)"/>
<path d="M928.13 45.2221H931.07V46.2792H923.45V45.2221H926.85V34.0138L923.61 35.9483L923.05 35.0509L927.05 32.5778H928.13V45.2221Z" fill="url(#paint50_linear_122_130)"/>
<path d="M928.13 68.015H931.07V69.072H923.45V68.015H926.85V56.8066L923.61 58.7411L923.05 57.8437L927.05 55.3706H928.13V68.015Z" fill="url(#paint51_linear_122_130)"/>
<path d="M926.93 77.964C928.356 77.964 929.436 78.569 930.17 79.7789C930.916 80.9755 931.29 82.7173 931.29 85.0041C931.29 87.291 930.916 89.0394 930.17 90.2493C929.436 91.4593 928.356 92.0642 926.93 92.0642C925.517 92.0642 924.437 91.4593 923.69 90.2493C922.943 89.0394 922.57 87.291 922.57 85.0041C922.57 82.7306 922.943 80.9888 923.69 79.7789C924.437 78.569 925.517 77.964 926.93 77.964ZM923.99 85.0041C923.99 86.6262 924.137 87.896 924.43 88.8134L928.87 79.9783C928.403 79.3534 927.756 79.041 926.93 79.041C926.01 79.041 925.29 79.5329 924.77 80.5168C924.25 81.4874 923.99 82.9832 923.99 85.0041ZM926.93 90.9673C927.863 90.9673 928.59 90.482 929.11 89.5114C929.63 88.5275 929.89 87.0251 929.89 85.0041C929.89 83.289 929.723 81.9594 929.39 81.0154L924.95 89.9302C925.43 90.6216 926.09 90.9673 926.93 90.9673Z" fill="url(#paint52_linear_122_130)"/>
<path d="M928.13 113.601H931.07V114.658H923.45V113.601H926.85V102.392L923.61 104.327L923.05 103.429L927.05 100.956H928.13V113.601Z" fill="url(#paint53_linear_122_130)"/>
<path d="M926.93 123.55C928.356 123.55 929.436 124.155 930.17 125.365C930.916 126.561 931.29 128.303 931.29 130.59C931.29 132.877 930.916 134.625 930.17 135.835C929.436 137.045 928.356 137.65 926.93 137.65C925.517 137.65 924.437 137.045 923.69 135.835C922.943 134.625 922.57 132.877 922.57 130.59C922.57 128.316 922.943 126.574 923.69 125.365C924.437 124.155 925.517 123.55 926.93 123.55ZM923.99 130.59C923.99 132.212 924.137 133.482 924.43 134.399L928.87 125.564C928.403 124.939 927.756 124.627 926.93 124.627C926.01 124.627 925.29 125.119 924.77 126.102C924.25 127.073 923.99 128.569 923.99 130.59ZM926.93 136.553C927.863 136.553 928.59 136.068 929.11 135.097C929.63 134.113 929.89 132.611 929.89 130.59C929.89 128.875 929.723 127.545 929.39 126.601L924.95 135.516C925.43 136.207 926.09 136.553 926.93 136.553Z" fill="url(#paint54_linear_122_130)"/>
<path d="M926.93 146.342C928.356 146.342 929.436 146.947 930.17 148.157C930.916 149.354 931.29 151.096 931.29 153.383C931.29 155.669 930.916 157.418 930.17 158.628C929.436 159.838 928.356 160.443 926.93 160.443C925.517 160.443 924.437 159.838 923.69 158.628C922.943 157.418 922.57 155.669 922.57 153.383C922.57 151.109 922.943 149.367 923.69 148.157C924.437 146.947 925.517 146.342 926.93 146.342ZM923.99 153.383C923.99 155.005 924.137 156.274 924.43 157.192L928.87 148.357C928.403 147.732 927.756 147.419 926.93 147.419C926.01 147.419 925.29 147.911 924.77 148.895C924.25 149.866 923.99 151.362 923.99 153.383ZM926.93 159.346C927.863 159.346 928.59 158.86 929.11 157.89C929.63 156.906 929.89 155.404 929.89 153.383C929.89 151.667 929.723 150.338 929.39 149.394L924.95 158.309C925.43 159 926.09 159.346 926.93 159.346Z" fill="url(#paint55_linear_122_130)"/>
<path d="M928.13 181.979H931.07V183.036H923.45V181.979H926.85V170.771L923.61 172.705L923.05 171.808L927.05 169.335H928.13V181.979Z" fill="url(#paint56_linear_122_130)"/>
<path d="M926.93 191.928C928.356 191.928 929.436 192.533 930.17 193.743C930.916 194.94 931.29 196.681 931.29 198.968C931.29 201.255 930.916 203.003 930.17 204.213C929.436 205.423 928.356 206.028 926.93 206.028C925.517 206.028 924.437 205.423 923.69 204.213C922.943 203.003 922.57 201.255 922.57 198.968C922.57 196.695 922.943 194.953 923.69 193.743C924.437 192.533 925.517 191.928 926.93 191.928ZM923.99 198.968C923.99 200.59 924.137 201.86 924.43 202.777L928.87 193.942C928.403 193.317 927.756 193.005 926.93 193.005C926.01 193.005 925.29 193.497 924.77 194.481C924.25 195.451 923.99 196.947 923.99 198.968ZM926.93 204.931C927.863 204.931 928.59 204.446 929.11 203.475C929.63 202.492 929.89 200.989 929.89 198.968C929.89 197.253 929.723 195.923 929.39 194.979L924.95 203.894C925.43 204.586 926.09 204.931 926.93 204.931Z" fill="url(#paint57_linear_122_130)"/>
<path d="M928.13 227.565H931.07V228.622H923.45V227.565H926.85V216.356L923.61 218.291L923.05 217.393L927.05 214.92H928.13V227.565Z" fill="url(#paint58_linear_122_130)"/>
<path d="M928.13 250.357H931.07V251.414H923.45V250.357H926.85V239.149L923.61 241.084L923.05 240.186L927.05 237.713H928.13V250.357Z" fill="url(#paint59_linear_122_130)"/>
<path d="M964.07 9.58561C965.497 9.58561 966.577 10.1906 967.31 11.4005C968.057 12.5971 968.43 14.3389 968.43 16.6257C968.43 18.9126 968.057 20.661 967.31 21.8709C966.577 23.0808 965.497 23.6858 964.07 23.6858C962.657 23.6858 961.577 23.0808 960.83 21.8709C960.084 20.661 959.71 18.9126 959.71 16.6257C959.71 14.3522 960.084 12.6104 960.83 11.4005C961.577 10.1906 962.657 9.58561 964.07 9.58561ZM961.13 16.6257C961.13 18.2478 961.277 19.5176 961.57 20.435L966.01 11.5999C965.543 10.975 964.897 10.6626 964.07 10.6626C963.15 10.6626 962.43 11.1545 961.91 12.1384C961.39 13.109 961.13 14.6048 961.13 16.6257ZM964.07 22.5889C965.003 22.5889 965.73 22.1036 966.25 21.133C966.77 20.1491 967.03 18.6467 967.03 16.6257C967.03 14.9106 966.863 13.581 966.53 12.637L962.09 21.5518C962.57 22.2432 963.23 22.5889 964.07 22.5889Z" fill="url(#paint60_linear_122_130)"/>
<path d="M965.27 45.2221H968.21V46.2792H960.59V45.2221H963.99V34.0138L960.75 35.9483L960.19 35.0509L964.19 32.5778H965.27V45.2221Z" fill="url(#paint61_linear_122_130)"/>
<path d="M964.07 55.1712C965.497 55.1712 966.577 55.7762 967.31 56.9861C968.057 58.1827 968.43 59.9245 968.43 62.2113C968.43 64.4982 968.057 66.2466 967.31 67.4565C966.577 68.6664 965.497 69.2714 964.07 69.2714C962.657 69.2714 961.577 68.6664 960.83 67.4565C960.084 66.2466 959.71 64.4982 959.71 62.2113C959.71 59.9378 960.084 58.196 960.83 56.9861C961.577 55.7762 962.657 55.1712 964.07 55.1712ZM961.13 62.2113C961.13 63.8334 961.277 65.1032 961.57 66.0206L966.01 57.1855C965.543 56.5606 964.897 56.2482 964.07 56.2482C963.15 56.2482 962.43 56.7401 961.91 57.724C961.39 58.6946 961.13 60.1904 961.13 62.2113ZM964.07 68.1745C965.003 68.1745 965.73 67.6892 966.25 66.7186C966.77 65.7347 967.03 64.2323 967.03 62.2113C967.03 60.4962 966.863 59.1666 966.53 58.2226L962.09 67.1374C962.57 67.8288 963.23 68.1745 964.07 68.1745Z" fill="url(#paint62_linear_122_130)"/>
<path d="M964.07 77.964C965.497 77.964 966.577 78.569 967.31 79.7789C968.057 80.9755 968.43 82.7173 968.43 85.0041C968.43 87.291 968.057 89.0394 967.31 90.2493C966.577 91.4593 965.497 92.0642 964.07 92.0642C962.657 92.0642 961.577 91.4593 960.83 90.2493C960.084 89.0394 959.71 87.291 959.71 85.0041C959.71 82.7306 960.084 80.9888 960.83 79.7789C961.577 78.569 962.657 77.964 964.07 77.964ZM961.13 85.0041C961.13 86.6262 961.277 87.896 961.57 88.8134L966.01 79.9783C965.543 79.3534 964.897 79.041 964.07 79.041C963.15 79.041 962.43 79.5329 961.91 80.5168C961.39 81.4874 961.13 82.9832 961.13 85.0041ZM964.07 90.9673C965.003 90.9673 965.73 90.482 966.25 89.5114C966.77 88.5275 967.03 87.0251 967.03 85.0041C967.03 83.289 966.863 81.9594 966.53 81.0154L962.09 89.9302C962.57 90.6216 963.23 90.9673 964.07 90.9673Z" fill="url(#paint63_linear_122_130)"/>
<path d="M965.27 113.601H968.21V114.658H960.59V113.601H963.99V102.392L960.75 104.327L960.19 103.429L964.19 100.956H965.27V113.601Z" fill="url(#paint64_linear_122_130)"/>
<path d="M964.07 123.55C965.497 123.55 966.577 124.155 967.31 125.365C968.057 126.561 968.43 128.303 968.43 130.59C968.43 132.877 968.057 134.625 967.31 135.835C966.577 137.045 965.497 137.65 964.07 137.65C962.657 137.65 961.577 137.045 960.83 135.835C960.084 134.625 959.71 132.877 959.71 130.59C959.71 128.316 960.084 126.574 960.83 125.365C961.577 124.155 962.657 123.55 964.07 123.55ZM961.13 130.59C961.13 132.212 961.277 133.482 961.57 134.399L966.01 125.564C965.543 124.939 964.897 124.627 964.07 124.627C963.15 124.627 962.43 125.119 961.91 126.102C961.39 127.073 961.13 128.569 961.13 130.59ZM964.07 136.553C965.003 136.553 965.73 136.068 966.25 135.097C966.77 134.113 967.03 132.611 967.03 130.59C967.03 128.875 966.863 127.545 966.53 126.601L962.09 135.516C962.57 136.207 963.23 136.553 964.07 136.553Z" fill="url(#paint65_linear_122_130)"/>
<path d="M965.27 159.186H968.21V160.243H960.59V159.186H963.99V147.978L960.75 149.912L960.19 149.015L964.19 146.542H965.27V159.186Z" fill="url(#paint66_linear_122_130)"/>
<path d="M964.07 169.135C965.497 169.135 966.577 169.74 967.31 170.95C968.057 172.147 968.43 173.888 968.43 176.175C968.43 178.462 968.057 180.211 967.31 181.421C966.577 182.63 965.497 183.235 964.07 183.235C962.657 183.235 961.577 182.63 960.83 181.421C960.084 180.211 959.71 178.462 959.71 176.175C959.71 173.902 960.084 172.16 960.83 170.95C961.577 169.74 962.657 169.135 964.07 169.135ZM961.13 176.175C961.13 177.797 961.277 179.067 961.57 179.985L966.01 171.15C965.543 170.525 964.897 170.212 964.07 170.212C963.15 170.212 962.43 170.704 961.91 171.688C961.39 172.659 961.13 174.154 961.13 176.175ZM964.07 182.139C965.003 182.139 965.73 181.653 966.25 180.683C966.77 179.699 967.03 178.196 967.03 176.175C967.03 174.46 966.863 173.131 966.53 172.187L962.09 181.101C962.57 181.793 963.23 182.139 964.07 182.139Z" fill="url(#paint67_linear_122_130)"/>
<path d="M964.07 191.928C965.497 191.928 966.577 192.533 967.31 193.743C968.057 194.94 968.43 196.681 968.43 198.968C968.43 201.255 968.057 203.003 967.31 204.213C966.577 205.423 965.497 206.028 964.07 206.028C962.657 206.028 961.577 205.423 960.83 204.213C960.084 203.003 959.71 201.255 959.71 198.968C959.71 196.695 960.084 194.953 960.83 193.743C961.577 192.533 962.657 191.928 964.07 191.928ZM961.13 198.968C961.13 200.59 961.277 201.86 961.57 202.777L966.01 193.942C965.543 193.317 964.897 193.005 964.07 193.005C963.15 193.005 962.43 193.497 961.91 194.481C961.39 195.451 961.13 196.947 961.13 198.968ZM964.07 204.931C965.003 204.931 965.73 204.446 966.25 203.475C966.77 202.492 967.03 200.989 967.03 198.968C967.03 197.253 966.863 195.923 966.53 194.979L962.09 203.894C962.57 204.586 963.23 204.931 964.07 204.931Z" fill="url(#paint68_linear_122_130)"/>
<path d="M965.27 227.565H968.21V228.622H960.59V227.565H963.99V216.356L960.75 218.291L960.19 217.393L964.19 214.92H965.27V227.565Z" fill="url(#paint69_linear_122_130)"/>
<path d="M964.07 237.514C965.497 237.514 966.577 238.119 967.31 239.329C968.057 240.525 968.43 242.267 968.43 244.554C968.43 246.841 968.057 248.589 967.31 249.799C966.577 251.009 965.497 251.614 964.07 251.614C962.657 251.614 961.577 251.009 960.83 249.799C960.084 248.589 959.71 246.841 959.71 244.554C959.71 242.28 960.084 240.538 960.83 239.329C961.577 238.119 962.657 237.514 964.07 237.514ZM961.13 244.554C961.13 246.176 961.277 247.446 961.57 248.363L966.01 239.528C965.543 238.903 964.897 238.591 964.07 238.591C963.15 238.591 962.43 239.083 961.91 240.066C961.39 241.037 961.13 242.533 961.13 244.554ZM964.07 250.517C965.003 250.517 965.73 250.032 966.25 249.061C966.77 248.077 967.03 246.575 967.03 244.554C967.03 242.839 966.863 241.509 966.53 240.565L962.09 249.48C962.57 250.171 963.23 250.517 964.07 250.517Z" fill="url(#paint70_linear_122_130)"/>
<path d="M965.27 273.15H968.21V274.207H960.59V273.15H963.99V261.942L960.75 263.876L960.19 262.979L964.19 260.506H965.27V273.15Z" fill="url(#paint71_linear_122_130)"/>
<path d="M965.27 295.943H968.21V297H960.59V295.943H963.99V284.735L960.75 286.669L960.19 285.772L964.19 283.299H965.27V295.943Z" fill="url(#paint72_linear_122_130)"/>
<path d="M908.36 32.3784C909.786 32.3784 910.866 32.9834 911.599 34.1933C912.346 35.3899 912.719 37.1317 912.719 39.4185C912.719 41.7054 912.346 43.4538 911.599 44.6637C910.866 45.8736 909.786 46.4786 908.36 46.4786C906.946 46.4786 905.867 45.8736 905.12 44.6637C904.373 43.4538 904 41.7054 904 39.4185C904 37.145 904.373 35.4032 905.12 34.1933C905.867 32.9834 906.946 32.3784 908.36 32.3784ZM905.42 39.4185C905.42 41.0406 905.567 42.3104 905.86 43.2278L910.3 34.3927C909.833 33.7678 909.186 33.4554 908.36 33.4554C907.44 33.4554 906.72 33.9473 906.2 34.9312C905.68 35.9018 905.42 37.3976 905.42 39.4185ZM908.36 45.3817C909.293 45.3817 910.02 44.8964 910.54 43.9258C911.06 42.9419 911.319 41.4395 911.319 39.4185C911.319 37.7034 911.153 36.3738 910.82 35.4298L906.38 44.3446C906.86 45.036 907.52 45.3817 908.36 45.3817Z" fill="url(#paint73_linear_122_130)"/>
<path d="M908.36 55.1712C909.786 55.1712 910.866 55.7762 911.599 56.9861C912.346 58.1827 912.719 59.9245 912.719 62.2113C912.719 64.4982 912.346 66.2466 911.599 67.4565C910.866 68.6664 909.786 69.2714 908.36 69.2714C906.946 69.2714 905.867 68.6664 905.12 67.4565C904.373 66.2466 904 64.4982 904 62.2113C904 59.9378 904.373 58.196 905.12 56.9861C905.867 55.7762 906.946 55.1712 908.36 55.1712ZM905.42 62.2113C905.42 63.8334 905.567 65.1032 905.86 66.0206L910.3 57.1855C909.833 56.5606 909.186 56.2482 908.36 56.2482C907.44 56.2482 906.72 56.7401 906.2 57.724C905.68 58.6946 905.42 60.1904 905.42 62.2113ZM908.36 68.1745C909.293 68.1745 910.02 67.6892 910.54 66.7186C911.06 65.7347 911.319 64.2323 911.319 62.2113C911.319 60.4962 911.153 59.1666 910.82 58.2226L906.38 67.1374C906.86 67.8288 907.52 68.1745 908.36 68.1745Z" fill="url(#paint74_linear_122_130)"/>
<path d="M909.56 90.8078H912.499V91.8648H904.88V90.8078H908.28V79.5994L905.04 81.5339L904.48 80.6365L908.48 78.1635H909.56V90.8078Z" fill="url(#paint75_linear_122_130)"/>
<path d="M908.36 100.757C909.786 100.757 910.866 101.362 911.599 102.572C912.346 103.768 912.719 105.51 912.719 107.797C912.719 110.084 912.346 111.832 911.599 113.042C910.866 114.252 909.786 114.857 908.36 114.857C906.946 114.857 905.867 114.252 905.12 113.042C904.373 111.832 904 110.084 904 107.797C904 105.523 904.373 103.782 905.12 102.572C905.867 101.362 906.946 100.757 908.36 100.757ZM905.42 107.797C905.42 109.419 905.567 110.689 905.86 111.606L910.3 102.771C909.833 102.146 909.186 101.834 908.36 101.834C907.44 101.834 906.72 102.326 906.2 103.31C905.68 104.28 905.42 105.776 905.42 107.797ZM908.36 113.76C909.293 113.76 910.02 113.275 910.54 112.304C911.06 111.32 911.319 109.818 911.319 107.797C911.319 106.082 911.153 104.752 910.82 103.808L906.38 112.723C906.86 113.414 907.52 113.76 908.36 113.76Z" fill="url(#paint76_linear_122_130)"/>
<path d="M909.56 136.393H912.499V137.45H904.88V136.393H908.28V125.185L905.04 127.12L904.48 126.222L908.48 123.749H909.56V136.393Z" fill="url(#paint77_linear_122_130)"/>
<path d="M909.56 159.186H912.499V160.243H904.88V159.186H908.28V147.978L905.04 149.912L904.48 149.015L908.48 146.542H909.56V159.186Z" fill="url(#paint78_linear_122_130)"/>
<path d="M946.7 -0.363452H949.64V0.693562H942.02V-0.363452H945.42V-11.5718L942.18 -9.63727L941.62 -10.5347L945.62 -13.0078H946.7V-0.363452Z" fill="url(#paint79_linear_122_130)"/>
<path d="M945.5 9.58561C946.927 9.58561 948.006 10.1906 948.74 11.4005C949.486 12.5971 949.86 14.3389 949.86 16.6257C949.86 18.9126 949.486 20.661 948.74 21.8709C948.006 23.0808 946.927 23.6858 945.5 23.6858C944.087 23.6858 943.007 23.0808 942.26 21.8709C941.514 20.661 941.14 18.9126 941.14 16.6257C941.14 14.3522 941.514 12.6104 942.26 11.4005C943.007 10.1906 944.087 9.58561 945.5 9.58561ZM942.56 16.6257C942.56 18.2478 942.707 19.5176 943 20.435L947.44 11.5999C946.973 10.975 946.327 10.6626 945.5 10.6626C944.58 10.6626 943.86 11.1545 943.34 12.1384C942.82 13.109 942.56 14.6048 942.56 16.6257ZM945.5 22.5889C946.433 22.5889 947.16 22.1036 947.68 21.133C948.2 20.1491 948.46 18.6467 948.46 16.6257C948.46 14.9106 948.293 13.581 947.96 12.637L943.52 21.5518C944 22.2432 944.66 22.5889 945.5 22.5889Z" fill="url(#paint80_linear_122_130)"/>
<path d="M946.7 45.2221H949.64V46.2792H942.02V45.2221H945.42V34.0138L942.18 35.9483L941.62 35.0509L945.62 32.5778H946.7V45.2221Z" fill="url(#paint81_linear_122_130)"/>
<path d="M946.7 68.015H949.64V69.072H942.02V68.015H945.42V56.8066L942.18 58.7411L941.62 57.8437L945.62 55.3706H946.7V68.015Z" fill="url(#paint82_linear_122_130)"/>
<path d="M945.5 77.964C946.927 77.964 948.006 78.569 948.74 79.7789C949.486 80.9755 949.86 82.7173 949.86 85.0041C949.86 87.291 949.486 89.0394 948.74 90.2493C948.006 91.4593 946.927 92.0642 945.5 92.0642C944.087 92.0642 943.007 91.4593 942.26 90.2493C941.514 89.0394 941.14 87.291 941.14 85.0041C941.14 82.7306 941.514 80.9888 942.26 79.7789C943.007 78.569 944.087 77.964 945.5 77.964ZM942.56 85.0041C942.56 86.6262 942.707 87.896 943 88.8134L947.44 79.9783C946.973 79.3534 946.327 79.041 945.5 79.041C944.58 79.041 943.86 79.5329 943.34 80.5168C942.82 81.4874 942.56 82.9832 942.56 85.0041ZM945.5 90.9673C946.433 90.9673 947.16 90.482 947.68 89.5114C948.2 88.5275 948.46 87.0251 948.46 85.0041C948.46 83.289 948.293 81.9594 947.96 81.0154L943.52 89.9302C944 90.6216 944.66 90.9673 945.5 90.9673Z" fill="url(#paint83_linear_122_130)"/>
<path d="M946.7 113.601H949.64V114.658H942.02V113.601H945.42V102.392L942.18 104.327L941.62 103.429L945.62 100.956H946.7V113.601Z" fill="url(#paint84_linear_122_130)"/>
<path d="M946.7 136.393H949.64V137.45H942.02V136.393H945.42V125.185L942.18 127.12L941.62 126.222L945.62 123.749H946.7V136.393Z" fill="url(#paint85_linear_122_130)"/>
<path d="M945.5 146.342C946.927 146.342 948.006 146.947 948.74 148.157C949.486 149.354 949.86 151.096 949.86 153.383C949.86 155.669 949.486 157.418 948.74 158.628C948.006 159.838 946.927 160.443 945.5 160.443C944.087 160.443 943.007 159.838 942.26 158.628C941.514 157.418 941.14 155.669 941.14 153.383C941.14 151.109 941.514 149.367 942.26 148.157C943.007 146.947 944.087 146.342 945.5 146.342ZM942.56 153.383C942.56 155.005 942.707 156.274 943 157.192L947.44 148.357C946.973 147.732 946.327 147.419 945.5 147.419C944.58 147.419 943.86 147.911 943.34 148.895C942.82 149.866 942.56 151.362 942.56 153.383ZM945.5 159.346C946.433 159.346 947.16 158.86 947.68 157.89C948.2 156.906 948.46 155.404 948.46 153.383C948.46 151.667 948.293 150.338 947.96 149.394L943.52 158.309C944 159 944.66 159.346 945.5 159.346Z" fill="url(#paint86_linear_122_130)"/>
<path d="M946.7 181.979H949.64V183.036H942.02V181.979H945.42V170.771L942.18 172.705L941.62 171.808L945.62 169.335H946.7V181.979Z" fill="url(#paint87_linear_122_130)"/>
<path d="M945.5 191.928C946.927 191.928 948.006 192.533 948.74 193.743C949.486 194.94 949.86 196.681 949.86 198.968C949.86 201.255 949.486 203.003 948.74 204.213C948.006 205.423 946.927 206.028 945.5 206.028C944.087 206.028 943.007 205.423 942.26 204.213C941.514 203.003 941.14 201.255 941.14 198.968C941.14 196.695 941.514 194.953 942.26 193.743C943.007 192.533 944.087 191.928 945.5 191.928ZM942.56 198.968C942.56 200.59 942.707 201.86 943 202.777L947.44 193.942C946.973 193.317 946.327 193.005 945.5 193.005C944.58 193.005 943.86 193.497 943.34 194.481C942.82 195.451 942.56 196.947 942.56 198.968ZM945.5 204.931C946.433 204.931 947.16 204.446 947.68 203.475C948.2 202.492 948.46 200.989 948.46 198.968C948.46 197.253 948.293 195.923 947.96 194.979L943.52 203.894C944 204.586 944.66 204.931 945.5 204.931Z" fill="url(#paint88_linear_122_130)"/>
<path d="M982.64 -13.2072C984.067 -13.2072 985.147 -12.6022 985.88 -11.3923C986.627 -10.1957 987 -8.45395 987 -6.16707C987 -3.88019 986.627 -2.13179 985.88 -0.921876C985.147 0.288042 984.067 0.893001 982.64 0.893001C981.227 0.893001 980.147 0.288042 979.401 -0.921876C978.654 -2.13179 978.281 -3.88019 978.281 -6.16707C978.281 -8.44065 978.654 -10.1824 979.401 -11.3923C980.147 -12.6022 981.227 -13.2072 982.64 -13.2072ZM979.7 -6.16707C979.7 -4.54498 979.847 -3.27523 980.14 -2.35782L984.58 -11.1929C984.114 -11.8178 983.467 -12.1302 982.64 -12.1302C981.72 -12.1302 981 -11.6383 980.48 -10.6544C979.96 -9.68381 979.7 -8.18803 979.7 -6.16707ZM982.64 -0.203903C983.574 -0.203903 984.3 -0.689198 984.82 -1.65979C985.34 -2.64368 985.6 -4.14611 985.6 -6.16707C985.6 -7.88223 985.433 -9.21181 985.1 -10.1558L980.66 -1.24098C981.14 -0.549596 981.8 -0.203903 982.64 -0.203903Z" fill="url(#paint89_linear_122_130)"/>
<path d="M983.84 22.4293H986.78V23.4864H979.161V22.4293H982.56V11.221L979.321 13.1555L978.761 12.2581L982.76 9.78504H983.84V22.4293Z" fill="url(#paint90_linear_122_130)"/>
<path d="M983.84 45.2221H986.78V46.2792H979.161V45.2221H982.56V34.0138L979.321 35.9483L978.761 35.0509L982.76 32.5778H983.84V45.2221Z" fill="url(#paint91_linear_122_130)"/>
<path d="M982.64 55.1712C984.067 55.1712 985.147 55.7762 985.88 56.9861C986.627 58.1827 987 59.9245 987 62.2113C987 64.4982 986.627 66.2466 985.88 67.4565C985.147 68.6664 984.067 69.2714 982.64 69.2714C981.227 69.2714 980.147 68.6664 979.401 67.4565C978.654 66.2466 978.281 64.4982 978.281 62.2113C978.281 59.9378 978.654 58.196 979.401 56.9861C980.147 55.7762 981.227 55.1712 982.64 55.1712ZM979.7 62.2113C979.7 63.8334 979.847 65.1032 980.14 66.0206L984.58 57.1855C984.114 56.5606 983.467 56.2482 982.64 56.2482C981.72 56.2482 981 56.7401 980.48 57.724C979.96 58.6946 979.7 60.1904 979.7 62.2113ZM982.64 68.1745C983.574 68.1745 984.3 67.6892 984.82 66.7186C985.34 65.7347 985.6 64.2323 985.6 62.2113C985.6 60.4962 985.433 59.1666 985.1 58.2226L980.66 67.1374C981.14 67.8288 981.8 68.1745 982.64 68.1745Z" fill="url(#paint92_linear_122_130)"/>
<path d="M982.64 77.964C984.067 77.964 985.147 78.569 985.88 79.7789C986.627 80.9755 987 82.7173 987 85.0041C987 87.291 986.627 89.0394 985.88 90.2493C985.147 91.4593 984.067 92.0642 982.64 92.0642C981.227 92.0642 980.147 91.4593 979.401 90.2493C978.654 89.0394 978.281 87.291 978.281 85.0041C978.281 82.7306 978.654 80.9888 979.401 79.7789C980.147 78.569 981.227 77.964 982.64 77.964ZM979.7 85.0041C979.7 86.6262 979.847 87.896 980.14 88.8134L984.58 79.9783C984.114 79.3534 983.467 79.041 982.64 79.041C981.72 79.041 981 79.5329 980.48 80.5168C979.96 81.4874 979.7 82.9832 979.7 85.0041ZM982.64 90.9673C983.574 90.9673 984.3 90.482 984.82 89.5114C985.34 88.5275 985.6 87.0251 985.6 85.0041C985.6 83.289 985.433 81.9594 985.1 81.0154L980.66 89.9302C981.14 90.6216 981.8 90.9673 982.64 90.9673Z" fill="url(#paint93_linear_122_130)"/>
</g>
</g>
<defs>
<filter id="filter0_f_122_130" x="-551.19" y="-722.19" width="2141.38" height="1500.38" filterUnits="userSpaceOnUse" color-interpolation-filters="sRGB">
<feFlood flood-opacity="0" result="BackgroundImageFix"/>
<feBlend mode="normal" in="SourceGraphic" in2="BackgroundImageFix" result="shape"/>
<feGaussianBlur stdDeviation="200.095" result="effect1_foregroundBlur_122_130"/>
</filter>
<linearGradient id="paint0_linear_122_130" x1="59.5" y1="264" x2="59.5" y2="575.381" gradientUnits="userSpaceOnUse">
<stop stop-color="#F7DD43"/>
<stop offset="1" stop-color="#F7DD43" stop-opacity="0"/>
</linearGradient>
<linearGradient id="paint1_linear_122_130" x1="59.5" y1="264" x2="59.5" y2="575.381" gradientUnits="userSpaceOnUse">
<stop stop-color="#F7DD43"/>
<stop offset="1" stop-color="#F7DD43" stop-opacity="0"/>
</linearGradient>
<linearGradient id="paint2_linear_122_130" x1="59.5" y1="264" x2="59.5" y2="575.381" gradientUnits="userSpaceOnUse">
<stop stop-color="#F7DD43"/>
<stop offset="1" stop-color="#F7DD43" stop-opacity="0"/>
</linearGradient>
<linearGradient id="paint3_linear_122_130" x1="59.5" y1="264" x2="59.5" y2="575.381" gradientUnits="userSpaceOnUse">
<stop stop-color="#F7DD43"/>
<stop offset="1" stop-color="#F7DD43" stop-opacity="0"/>
</linearGradient>
<linearGradient id="paint4_linear_122_130" x1="59.5" y1="264" x2="59.5" y2="575.381" gradientUnits="userSpaceOnUse">
<stop stop-color="#F7DD43"/>
<stop offset="1" stop-color="#F7DD43" stop-opacity="0"/>
</linearGradient>
<linearGradient id="paint5_linear_122_130" x1="59.5" y1="264" x2="59.5" y2="575.381" gradientUnits="userSpaceOnUse">
<stop stop-color="#F7DD43"/>
<stop offset="1" stop-color="#F7DD43" stop-opacity="0"/>
</linearGradient>
<linearGradient id="paint6_linear_122_130" x1="59.5" y1="264" x2="59.5" y2="575.381" gradientUnits="userSpaceOnUse">
<stop stop-color="#F7DD43"/>
<stop offset="1" stop-color="#F7DD43" stop-opacity="0"/>
</linearGradient>
<linearGradient id="paint7_linear_122_130" x1="59.5" y1="264" x2="59.5" y2="575.381" gradientUnits="userSpaceOnUse">
<stop stop-color="#F7DD43"/>
<stop offset="1" stop-color="#F7DD43" stop-opacity="0"/>
</linearGradient>
<linearGradient id="paint8_linear_122_130" x1="59.5" y1="264" x2="59.5" y2="575.381" gradientUnits="userSpaceOnUse">
<stop stop-color="#F7DD43"/>
<stop offset="1" stop-color="#F7DD43" stop-opacity="0"/>
</linearGradient>
<linearGradient id="paint9_linear_122_130" x1="59.5" y1="264" x2="59.5" y2="575.381" gradientUnits="userSpaceOnUse">
<stop stop-color="#F7DD43"/>
<stop offset="1" stop-color="#F7DD43" stop-opacity="0"/>
</linearGradient>
<linearGradient id="paint10_linear_122_130" x1="59.5" y1="264" x2="59.5" y2="575.381" gradientUnits="userSpaceOnUse">
<stop stop-color="#F7DD43"/>
<stop offset="1" stop-color="#F7DD43" stop-opacity="0"/>
</linearGradient>
<linearGradient id="paint11_linear_122_130" x1="59.5" y1="264" x2="59.5" y2="575.381" gradientUnits="userSpaceOnUse">
<stop stop-color="#F7DD43"/>
<stop offset="1" stop-color="#F7DD43" stop-opacity="0"/>
</linearGradient>
<linearGradient id="paint12_linear_122_130" x1="59.5" y1="264" x2="59.5" y2="575.381" gradientUnits="userSpaceOnUse">
<stop stop-color="#F7DD43"/>
<stop offset="1" stop-color="#F7DD43" stop-opacity="0"/>
</linearGradient>
<linearGradient id="paint13_linear_122_130" x1="59.5" y1="264" x2="59.5" y2="575.381" gradientUnits="userSpaceOnUse">
<stop stop-color="#F7DD43"/>
<stop offset="1" stop-color="#F7DD43" stop-opacity="0"/>
</linearGradient>
<linearGradient id="paint14_linear_122_130" x1="59.5" y1="264" x2="59.5" y2="575.381" gradientUnits="userSpaceOnUse">
<stop stop-color="#F7DD43"/>
<stop offset="1" stop-color="#F7DD43" stop-opacity="0"/>
</linearGradient>
<linearGradient id="paint15_linear_122_130" x1="59.5" y1="264" x2="59.5" y2="575.381" gradientUnits="userSpaceOnUse">
<stop stop-color="#F7DD43"/>
<stop offset="1" stop-color="#F7DD43" stop-opacity="0"/>
</linearGradient>
<linearGradient id="paint16_linear_122_130" x1="59.5" y1="264" x2="59.5" y2="575.381" gradientUnits="userSpaceOnUse">
<stop stop-color="#F7DD43"/>
<stop offset="1" stop-color="#F7DD43" stop-opacity="0"/>
</linearGradient>
<linearGradient id="paint17_linear_122_130" x1="59.5" y1="264" x2="59.5" y2="575.381" gradientUnits="userSpaceOnUse">
<stop stop-color="#F7DD43"/>
<stop offset="1" stop-color="#F7DD43" stop-opacity="0"/>
</linearGradient>
<linearGradient id="paint18_linear_122_130" x1="59.5" y1="264" x2="59.5" y2="575.381" gradientUnits="userSpaceOnUse">
<stop stop-color="#F7DD43"/>
<stop offset="1" stop-color="#F7DD43" stop-opacity="0"/>
</linearGradient>
<linearGradient id="paint19_linear_122_130" x1="59.5" y1="264" x2="59.5" y2="575.381" gradientUnits="userSpaceOnUse">
<stop stop-color="#F7DD43"/>
<stop offset="1" stop-color="#F7DD43" stop-opacity="0"/>
</linearGradient>
<linearGradient id="paint20_linear_122_130" x1="59.5" y1="264" x2="59.5" y2="575.381" gradientUnits="userSpaceOnUse">
<stop stop-color="#F7DD43"/>
<stop offset="1" stop-color="#F7DD43" stop-opacity="0"/>
</linearGradient>
<linearGradient id="paint21_linear_122_130" x1="59.5" y1="264" x2="59.5" y2="575.381" gradientUnits="userSpaceOnUse">
<stop stop-color="#F7DD43"/>
<stop offset="1" stop-color="#F7DD43" stop-opacity="0"/>
</linearGradient>
<linearGradient id="paint22_linear_122_130" x1="59.5" y1="264" x2="59.5" y2="575.381" gradientUnits="userSpaceOnUse">
<stop stop-color="#F7DD43"/>
<stop offset="1" stop-color="#F7DD43" stop-opacity="0"/>
</linearGradient>
<linearGradient id="paint23_linear_122_130" x1="59.5" y1="264" x2="59.5" y2="575.381" gradientUnits="userSpaceOnUse">
<stop stop-color="#F7DD43"/>
<stop offset="1" stop-color="#F7DD43" stop-opacity="0"/>
</linearGradient>
<linearGradient id="paint24_linear_122_130" x1="59.5" y1="264" x2="59.5" y2="575.381" gradientUnits="userSpaceOnUse">
<stop stop-color="#F7DD43"/>
<stop offset="1" stop-color="#F7DD43" stop-opacity="0"/>
</linearGradient>
<linearGradient id="paint25_linear_122_130" x1="59.5" y1="264" x2="59.5" y2="575.381" gradientUnits="userSpaceOnUse">
<stop stop-color="#F7DD43"/>
<stop offset="1" stop-color="#F7DD43" stop-opacity="0"/>
</linearGradient>
<linearGradient id="paint26_linear_122_130" x1="59.5" y1="264" x2="59.5" y2="575.381" gradientUnits="userSpaceOnUse">
<stop stop-color="#F7DD43"/>
<stop offset="1" stop-color="#F7DD43" stop-opacity="0"/>
</linearGradient>
<linearGradient id="paint27_linear_122_130" x1="59.5" y1="264" x2="59.5" y2="575.381" gradientUnits="userSpaceOnUse">
<stop stop-color="#F7DD43"/>
<stop offset="1" stop-color="#F7DD43" stop-opacity="0"/>
</linearGradient>
<linearGradient id="paint28_linear_122_130" x1="59.5" y1="264" x2="59.5" y2="575.381" gradientUnits="userSpaceOnUse">
<stop stop-color="#F7DD43"/>
<stop offset="1" stop-color="#F7DD43" stop-opacity="0"/>
</linearGradient>
<linearGradient id="paint29_linear_122_130" x1="59.5" y1="264" x2="59.5" y2="575.381" gradientUnits="userSpaceOnUse">
<stop stop-color="#F7DD43"/>
<stop offset="1" stop-color="#F7DD43" stop-opacity="0"/>
</linearGradient>
<linearGradient id="paint30_linear_122_130" x1="59.5" y1="264" x2="59.5" y2="575.381" gradientUnits="userSpaceOnUse">
<stop stop-color="#F7DD43"/>
<stop offset="1" stop-color="#F7DD43" stop-opacity="0"/>
</linearGradient>
<linearGradient id="paint31_linear_122_130" x1="59.5" y1="264" x2="59.5" y2="575.381" gradientUnits="userSpaceOnUse">
<stop stop-color="#F7DD43"/>
<stop offset="1" stop-color="#F7DD43" stop-opacity="0"/>
</linearGradient>
<linearGradient id="paint32_linear_122_130" x1="59.5" y1="264" x2="59.5" y2="575.381" gradientUnits="userSpaceOnUse">
<stop stop-color="#F7DD43"/>
<stop offset="1" stop-color="#F7DD43" stop-opacity="0"/>
</linearGradient>
<linearGradient id="paint33_linear_122_130" x1="59.5" y1="264" x2="59.5" y2="575.381" gradientUnits="userSpaceOnUse">
<stop stop-color="#F7DD43"/>
<stop offset="1" stop-color="#F7DD43" stop-opacity="0"/>
</linearGradient>
<linearGradient id="paint34_linear_122_130" x1="59.5" y1="264" x2="59.5" y2="575.381" gradientUnits="userSpaceOnUse">
<stop stop-color="#F7DD43"/>
<stop offset="1" stop-color="#F7DD43" stop-opacity="0"/>
</linearGradient>
<linearGradient id="paint35_linear_122_130" x1="59.5" y1="264" x2="59.5" y2="575.381" gradientUnits="userSpaceOnUse">
<stop stop-color="#F7DD43"/>
<stop offset="1" stop-color="#F7DD43" stop-opacity="0"/>
</linearGradient>
<linearGradient id="paint36_linear_122_130" x1="59.5" y1="264" x2="59.5" y2="575.381" gradientUnits="userSpaceOnUse">
<stop stop-color="#F7DD43"/>
<stop offset="1" stop-color="#F7DD43" stop-opacity="0"/>
</linearGradient>
<linearGradient id="paint37_linear_122_130" x1="59.5" y1="264" x2="59.5" y2="575.381" gradientUnits="userSpaceOnUse">
<stop stop-color="#F7DD43"/>
<stop offset="1" stop-color="#F7DD43" stop-opacity="0"/>
</linearGradient>
<linearGradient id="paint38_linear_122_130" x1="59.5" y1="264" x2="59.5" y2="575.381" gradientUnits="userSpaceOnUse">
<stop stop-color="#F7DD43"/>
<stop offset="1" stop-color="#F7DD43" stop-opacity="0"/>
</linearGradient>
<linearGradient id="paint39_linear_122_130" x1="59.5" y1="264" x2="59.5" y2="575.381" gradientUnits="userSpaceOnUse">
<stop stop-color="#F7DD43"/>
<stop offset="1" stop-color="#F7DD43" stop-opacity="0"/>
</linearGradient>
<linearGradient id="paint40_linear_122_130" x1="59.5" y1="264" x2="59.5" y2="575.381" gradientUnits="userSpaceOnUse">
<stop stop-color="#F7DD43"/>
<stop offset="1" stop-color="#F7DD43" stop-opacity="0"/>
</linearGradient>
<linearGradient id="paint41_linear_122_130" x1="59.5" y1="264" x2="59.5" y2="575.381" gradientUnits="userSpaceOnUse">
<stop stop-color="#F7DD43"/>
<stop offset="1" stop-color="#F7DD43" stop-opacity="0"/>
</linearGradient>
<linearGradient id="paint42_linear_122_130" x1="59.5" y1="264" x2="59.5" y2="575.381" gradientUnits="userSpaceOnUse">
<stop stop-color="#F7DD43"/>
<stop offset="1" stop-color="#F7DD43" stop-opacity="0"/>
</linearGradient>
<linearGradient id="paint43_linear_122_130" x1="59.5" y1="264" x2="59.5" y2="575.381" gradientUnits="userSpaceOnUse">
<stop stop-color="#F7DD43"/>
<stop offset="1" stop-color="#F7DD43" stop-opacity="0"/>
</linearGradient>
<linearGradient id="paint44_linear_122_130" x1="59.5" y1="264" x2="59.5" y2="575.381" gradientUnits="userSpaceOnUse">
<stop stop-color="#F7DD43"/>
<stop offset="1" stop-color="#F7DD43" stop-opacity="0"/>
</linearGradient>
<linearGradient id="paint45_linear_122_130" x1="59.5" y1="264" x2="59.5" y2="575.381" gradientUnits="userSpaceOnUse">
<stop stop-color="#F7DD43"/>
<stop offset="1" stop-color="#F7DD43" stop-opacity="0"/>
</linearGradient>
<linearGradient id="paint46_linear_122_130" x1="59.5" y1="264" x2="59.5" y2="575.381" gradientUnits="userSpaceOnUse">
<stop stop-color="#F7DD43"/>
<stop offset="1" stop-color="#F7DD43" stop-opacity="0"/>
</linearGradient>
<linearGradient id="paint47_linear_122_130" x1="945.5" y1="-36" x2="945.5" y2="262.818" gradientUnits="userSpaceOnUse">
<stop stop-color="#F7DD43"/>
<stop offset="1" stop-color="#F7DD43" stop-opacity="0"/>
</linearGradient>
<linearGradient id="paint48_linear_122_130" x1="945.5" y1="-36" x2="945.5" y2="262.818" gradientUnits="userSpaceOnUse">
<stop stop-color="#F7DD43"/>
<stop offset="1" stop-color="#F7DD43" stop-opacity="0"/>
</linearGradient>
<linearGradient id="paint49_linear_122_130" x1="945.5" y1="-36" x2="945.5" y2="262.818" gradientUnits="userSpaceOnUse">
<stop stop-color="#F7DD43"/>
<stop offset="1" stop-color="#F7DD43" stop-opacity="0"/>
</linearGradient>
<linearGradient id="paint50_linear_122_130" x1="945.5" y1="-36" x2="945.5" y2="262.818" gradientUnits="userSpaceOnUse">
<stop stop-color="#F7DD43"/>
<stop offset="1" stop-color="#F7DD43" stop-opacity="0"/>
</linearGradient>
<linearGradient id="paint51_linear_122_130" x1="945.5" y1="-36" x2="945.5" y2="262.818" gradientUnits="userSpaceOnUse">
<stop stop-color="#F7DD43"/>
<stop offset="1" stop-color="#F7DD43" stop-opacity="0"/>
</linearGradient>
<linearGradient id="paint52_linear_122_130" x1="945.5" y1="-36" x2="945.5" y2="262.818" gradientUnits="userSpaceOnUse">
<stop stop-color="#F7DD43"/>
<stop offset="1" stop-color="#F7DD43" stop-opacity="0"/>
</linearGradient>
<linearGradient id="paint53_linear_122_130" x1="945.5" y1="-36" x2="945.5" y2="262.818" gradientUnits="userSpaceOnUse">
<stop stop-color="#F7DD43"/>
<stop offset="1" stop-color="#F7DD43" stop-opacity="0"/>
</linearGradient>
<linearGradient id="paint54_linear_122_130" x1="945.5" y1="-36" x2="945.5" y2="262.818" gradientUnits="userSpaceOnUse">
<stop stop-color="#F7DD43"/>
<stop offset="1" stop-color="#F7DD43" stop-opacity="0"/>
</linearGradient>
<linearGradient id="paint55_linear_122_130" x1="945.5" y1="-36" x2="945.5" y2="262.818" gradientUnits="userSpaceOnUse">
<stop stop-color="#F7DD43"/>
<stop offset="1" stop-color="#F7DD43" stop-opacity="0"/>
</linearGradient>
<linearGradient id="paint56_linear_122_130" x1="945.5" y1="-36" x2="945.5" y2="262.818" gradientUnits="userSpaceOnUse">
<stop stop-color="#F7DD43"/>
<stop offset="1" stop-color="#F7DD43" stop-opacity="0"/>
</linearGradient>
<linearGradient id="paint57_linear_122_130" x1="945.5" y1="-36" x2="945.5" y2="262.818" gradientUnits="userSpaceOnUse">
<stop stop-color="#F7DD43"/>
<stop offset="1" stop-color="#F7DD43" stop-opacity="0"/>
</linearGradient>
<linearGradient id="paint58_linear_122_130" x1="945.5" y1="-36" x2="945.5" y2="262.818" gradientUnits="userSpaceOnUse">
<stop stop-color="#F7DD43"/>
<stop offset="1" stop-color="#F7DD43" stop-opacity="0"/>
</linearGradient>
<linearGradient id="paint59_linear_122_130" x1="945.5" y1="-36" x2="945.5" y2="262.818" gradientUnits="userSpaceOnUse">
<stop stop-color="#F7DD43"/>
<stop offset="1" stop-color="#F7DD43" stop-opacity="0"/>
</linearGradient>
<linearGradient id="paint60_linear_122_130" x1="945.5" y1="-36" x2="945.5" y2="262.818" gradientUnits="userSpaceOnUse">
<stop stop-color="#F7DD43"/>
<stop offset="1" stop-color="#F7DD43" stop-opacity="0"/>
</linearGradient>
<linearGradient id="paint61_linear_122_130" x1="945.5" y1="-36" x2="945.5" y2="262.818" gradientUnits="userSpaceOnUse">
<stop stop-color="#F7DD43"/>
<stop offset="1" stop-color="#F7DD43" stop-opacity="0"/>
</linearGradient>
<linearGradient id="paint62_linear_122_130" x1="945.5" y1="-36" x2="945.5" y2="262.818" gradientUnits="userSpaceOnUse">
<stop stop-color="#F7DD43"/>
<stop offset="1" stop-color="#F7DD43" stop-opacity="0"/>
</linearGradient>
<linearGradient id="paint63_linear_122_130" x1="945.5" y1="-36" x2="945.5" y2="262.818" gradientUnits="userSpaceOnUse">
<stop stop-color="#F7DD43"/>
<stop offset="1" stop-color="#F7DD43" stop-opacity="0"/>
</linearGradient>
<linearGradient id="paint64_linear_122_130" x1="945.5" y1="-36" x2="945.5" y2="262.818" gradientUnits="userSpaceOnUse">
<stop stop-color="#F7DD43"/>
<stop offset="1" stop-color="#F7DD43" stop-opacity="0"/>
</linearGradient>
<linearGradient id="paint65_linear_122_130" x1="945.5" y1="-36" x2="945.5" y2="262.818" gradientUnits="userSpaceOnUse">
<stop stop-color="#F7DD43"/>
<stop offset="1" stop-color="#F7DD43" stop-opacity="0"/>
</linearGradient>
<linearGradient id="paint66_linear_122_130" x1="945.5" y1="-36" x2="945.5" y2="262.818" gradientUnits="userSpaceOnUse">
<stop stop-color="#F7DD43"/>
<stop offset="1" stop-color="#F7DD43" stop-opacity="0"/>
</linearGradient>
<linearGradient id="paint67_linear_122_130" x1="945.5" y1="-36" x2="945.5" y2="262.818" gradientUnits="userSpaceOnUse">
<stop stop-color="#F7DD43"/>
<stop offset="1" stop-color="#F7DD43" stop-opacity="0"/>
</linearGradient>
<linearGradient id="paint68_linear_122_130" x1="945.5" y1="-36" x2="945.5" y2="262.818" gradientUnits="userSpaceOnUse">
<stop stop-color="#F7DD43"/>
<stop offset="1" stop-color="#F7DD43" stop-opacity="0"/>
</linearGradient>
<linearGradient id="paint69_linear_122_130" x1="945.5" y1="-36" x2="945.5" y2="262.818" gradientUnits="userSpaceOnUse">
<stop stop-color="#F7DD43"/>
<stop offset="1" stop-color="#F7DD43" stop-opacity="0"/>
</linearGradient>
<linearGradient id="paint70_linear_122_130" x1="945.5" y1="-36" x2="945.5" y2="262.818" gradientUnits="userSpaceOnUse">
<stop stop-color="#F7DD43"/>
<stop offset="1" stop-color="#F7DD43" stop-opacity="0"/>
</linearGradient>
<linearGradient id="paint71_linear_122_130" x1="945.5" y1="-36" x2="945.5" y2="262.818" gradientUnits="userSpaceOnUse">
<stop stop-color="#F7DD43"/>
<stop offset="1" stop-color="#F7DD43" stop-opacity="0"/>
</linearGradient>
<linearGradient id="paint72_linear_122_130" x1="945.5" y1="-36" x2="945.5" y2="262.818" gradientUnits="userSpaceOnUse">
<stop stop-color="#F7DD43"/>
<stop offset="1" stop-color="#F7DD43" stop-opacity="0"/>
</linearGradient>
<linearGradient id="paint73_linear_122_130" x1="945.5" y1="-36" x2="945.5" y2="262.818" gradientUnits="userSpaceOnUse">
<stop stop-color="#F7DD43"/>
<stop offset="1" stop-color="#F7DD43" stop-opacity="0"/>
</linearGradient>
<linearGradient id="paint74_linear_122_130" x1="945.5" y1="-36" x2="945.5" y2="262.818" gradientUnits="userSpaceOnUse">
<stop stop-color="#F7DD43"/>
<stop offset="1" stop-color="#F7DD43" stop-opacity="0"/>
</linearGradient>
<linearGradient id="paint75_linear_122_130" x1="945.5" y1="-36" x2="945.5" y2="262.818" gradientUnits="userSpaceOnUse">
<stop stop-color="#F7DD43"/>
<stop offset="1" stop-color="#F7DD43" stop-opacity="0"/>
</linearGradient>
<linearGradient id="paint76_linear_122_130" x1="945.5" y1="-36" x2="945.5" y2="262.818" gradientUnits="userSpaceOnUse">
<stop stop-color="#F7DD43"/>
<stop offset="1" stop-color="#F7DD43" stop-opacity="0"/>
</linearGradient>
<linearGradient id="paint77_linear_122_130" x1="945.5" y1="-36" x2="945.5" y2="262.818" gradientUnits="userSpaceOnUse">
<stop stop-color="#F7DD43"/>
<stop offset="1" stop-color="#F7DD43" stop-opacity="0"/>
</linearGradient>
<linearGradient id="paint78_linear_122_130" x1="945.5" y1="-36" x2="945.5" y2="262.818" gradientUnits="userSpaceOnUse">
<stop stop-color="#F7DD43"/>
<stop offset="1" stop-color="#F7DD43" stop-opacity="0"/>
</linearGradient>
<linearGradient id="paint79_linear_122_130" x1="945.5" y1="-36" x2="945.5" y2="262.818" gradientUnits="userSpaceOnUse">
<stop stop-color="#F7DD43"/>
<stop offset="1" stop-color="#F7DD43" stop-opacity="0"/>
</linearGradient>
<linearGradient id="paint80_linear_122_130" x1="945.5" y1="-36" x2="945.5" y2="262.818" gradientUnits="userSpaceOnUse">
<stop stop-color="#F7DD43"/>
<stop offset="1" stop-color="#F7DD43" stop-opacity="0"/>
</linearGradient>
<linearGradient id="paint81_linear_122_130" x1="945.5" y1="-36" x2="945.5" y2="262.818" gradientUnits="userSpaceOnUse">
<stop stop-color="#F7DD43"/>
<stop offset="1" stop-color="#F7DD43" stop-opacity="0"/>
</linearGradient>
<linearGradient id="paint82_linear_122_130" x1="945.5" y1="-36" x2="945.5" y2="262.818" gradientUnits="userSpaceOnUse">
<stop stop-color="#F7DD43"/>
<stop offset="1" stop-color="#F7DD43" stop-opacity="0"/>
</linearGradient>
<linearGradient id="paint83_linear_122_130" x1="945.5" y1="-36" x2="945.5" y2="262.818" gradientUnits="userSpaceOnUse">
<stop stop-color="#F7DD43"/>
<stop offset="1" stop-color="#F7DD43" stop-opacity="0"/>
</linearGradient>
<linearGradient id="paint84_linear_122_130" x1="945.5" y1="-36" x2="945.5" y2="262.818" gradientUnits="userSpaceOnUse">
<stop stop-color="#F7DD43"/>
<stop offset="1" stop-color="#F7DD43" stop-opacity="0"/>
</linearGradient>
<linearGradient id="paint85_linear_122_130" x1="945.5" y1="-36" x2="945.5" y2="262.818" gradientUnits="userSpaceOnUse">
<stop stop-color="#F7DD43"/>
<stop offset="1" stop-color="#F7DD43" stop-opacity="0"/>
</linearGradient>
<linearGradient id="paint86_linear_122_130" x1="945.5" y1="-36" x2="945.5" y2="262.818" gradientUnits="userSpaceOnUse">
<stop stop-color="#F7DD43"/>
<stop offset="1" stop-color="#F7DD43" stop-opacity="0"/>
</linearGradient>
<linearGradient id="paint87_linear_122_130" x1="945.5" y1="-36" x2="945.5" y2="262.818" gradientUnits="userSpaceOnUse">
<stop stop-color="#F7DD43"/>
<stop offset="1" stop-color="#F7DD43" stop-opacity="0"/>
</linearGradient>
<linearGradient id="paint88_linear_122_130" x1="945.5" y1="-36" x2="945.5" y2="262.818" gradientUnits="userSpaceOnUse">
<stop stop-color="#F7DD43"/>
<stop offset="1" stop-color="#F7DD43" stop-opacity="0"/>
</linearGradient>
<linearGradient id="paint89_linear_122_130" x1="945.5" y1="-36" x2="945.5" y2="262.818" gradientUnits="userSpaceOnUse">
<stop stop-color="#F7DD43"/>
<stop offset="1" stop-color="#F7DD43" stop-opacity="0"/>
</linearGradient>
<linearGradient id="paint90_linear_122_130" x1="945.5" y1="-36" x2="945.5" y2="262.818" gradientUnits="userSpaceOnUse">
<stop stop-color="#F7DD43"/>
<stop offset="1" stop-color="#F7DD43" stop-opacity="0"/>
</linearGradient>
<linearGradient id="paint91_linear_122_130" x1="945.5" y1="-36" x2="945.5" y2="262.818" gradientUnits="userSpaceOnUse">
<stop stop-color="#F7DD43"/>
<stop offset="1" stop-color="#F7DD43" stop-opacity="0"/>
</linearGradient>
<linearGradient id="paint92_linear_122_130" x1="945.5" y1="-36" x2="945.5" y2="262.818" gradientUnits="userSpaceOnUse">
<stop stop-color="#F7DD43"/>
<stop offset="1" stop-color="#F7DD43" stop-opacity="0"/>
</linearGradient>
<linearGradient id="paint93_linear_122_130" x1="945.5" y1="-36" x2="945.5" y2="262.818" gradientUnits="userSpaceOnUse">
<stop stop-color="#F7DD43"/>
<stop offset="1" stop-color="#F7DD43" stop-opacity="0"/>
</linearGradient>
<clipPath id="clip0_122_130">
<rect width="1024" height="753" fill="white"/>
</clipPath>
</defs>
</svg>
